<svg width="19" height="32" viewBox="0 0 19 32" fill="none" xmlns="http://www.w3.org/2000/svg">
<g clip-path="url(#clip0_820_1301)">
<path d="M13.4275 9.96278L6.91854 13.3778L9.43137 14.7394L14.5234 12.0771C15.5623 11.5368 16.4326 10.7213 17.0392 9.71979C17.6459 8.71827 17.9656 7.56925 17.9634 6.39832V3.01099C17.9633 2.49353 17.8298 1.98484 17.5757 1.53407C17.3216 1.0833 16.9555 0.705699 16.5129 0.437755C16.0702 0.169811 15.5659 0.0205875 15.0487 0.00450525C14.5315 -0.011577 14.0189 0.106026 13.5604 0.345949L3.34579 5.6954C2.33685 6.22348 1.49172 7.01768 0.902033 7.9919C0.312346 8.96611 0.000602479 10.0832 0.000602479 11.222C0.000602479 12.3607 0.312346 13.4778 0.902033 14.452C1.49172 15.4262 2.33685 16.2204 3.34579 16.7485L13.4275 22.026C14.0815 22.3662 14.6293 22.8796 15.011 23.5103C15.3927 24.1409 15.5936 24.8644 15.5917 25.6015V28.9889C15.5897 29.0972 15.5602 29.2033 15.5058 29.297C15.4514 29.3908 15.374 29.469 15.2808 29.5245C15.1877 29.5799 15.082 29.6106 14.9736 29.6138C14.8653 29.6169 14.758 29.5923 14.6618 29.5424L4.44446 24.204C3.56129 23.739 2.89164 22.9511 2.57508 22.0045C2.25852 21.0579 2.31949 20.0257 2.74526 19.123L0.666916 17.969C-0.069845 19.4319 -0.201883 21.1259 0.299293 22.6853C0.800469 24.2448 1.89468 25.5447 3.34579 26.3045L13.5604 31.6539C14.0183 31.8958 14.5312 32.0146 15.0489 31.9986C15.5665 31.9826 16.0711 31.8323 16.5132 31.5626C16.9572 31.296 17.3243 30.9186 17.5785 30.4674C17.8327 30.0162 17.9653 29.5067 17.9634 28.9889V25.6015C17.9656 24.4316 17.6465 23.2836 17.0409 22.2827C16.4353 21.2817 15.5664 20.4664 14.529 19.9255L4.44446 14.6453C3.8218 14.3159 3.30073 13.8229 2.93729 13.2195C2.57386 12.6161 2.38181 11.925 2.38181 11.2206C2.38181 10.5162 2.57386 9.82506 2.93729 9.22163C3.30073 8.6182 3.8218 8.12528 4.44446 7.79588L14.6674 2.4492C14.7635 2.39924 14.8709 2.37465 14.9792 2.37778C15.0875 2.38091 15.1932 2.41165 15.2864 2.46708C15.3795 2.52251 15.4569 2.6008 15.5113 2.69453C15.5657 2.78826 15.5953 2.89433 15.5972 3.00268V6.39832C15.5966 7.13416 15.3939 7.85571 15.0113 8.48426C14.6287 9.11282 14.0809 9.62425 13.4275 9.96278V9.96278Z" fill="url(#paint0_linear_820_1301)"/>
</g>
<defs>
<linearGradient id="paint0_linear_820_1301" x1="-3.56747e-05" y1="15.9985" x2="17.9634" y2="15.9985" gradientUnits="userSpaceOnUse">
<stop stop-color="#8400FF"/>
<stop offset="0.04" stop-color="#8300FF"/>
<stop offset="0.31" stop-color="#7900FF"/>
<stop offset="0.77" stop-color="#5D00FF"/>
<stop offset="1" stop-color="#4C00FF"/>
</linearGradient>
<clipPath id="clip0_820_1301">
<rect width="18.2856" height="32" fill="white"/>
</clipPath>
</defs>
</svg>
