<svg width="94" height="31" viewBox="0 0 94 31" fill="none" xmlns="http://www.w3.org/2000/svg">
<g clip-path="url(#clip0_102_158)">
<path fill-rule="evenodd" clip-rule="evenodd" d="M15.2571 2.99271C15.2568 2.99282 15.2574 2.99261 15.2571 2.99271L5.87749 6.78448C2.12951 8.40303 2.07194 13.5962 5.71438 15.2316L5.7215 15.2348L14.816 19.4323C16.969 20.3816 18.4 22.6263 18.4 25V28C18.4 30.3083 15.9877 31.5306 14.1429 30.7927L15.2571 28.0073C15.2685 28.0118 15.2848 28.0154 15.3091 28.0129C15.3357 28.0101 15.3639 28.0004 15.3868 27.9863C15.3922 27.9829 15.3966 27.9798 15.4 27.9771V25C15.4 23.7791 14.6375 22.6287 13.5988 22.1742L13.585 22.1682L4.47806 17.965C-1.66734 15.1987 -1.32719 6.60827 4.70912 4.02128L4.72341 4.01516L14.1429 0.207275C16.0587 -0.55904 18.4 0.764987 18.4 3.1V6H15.4V3.1C15.4 3.05704 15.391 3.04114 15.3891 3.03786C15.3856 3.03155 15.3774 3.02055 15.3601 3.00935C15.318 2.98207 15.2771 2.98506 15.2571 2.99271Z" fill="#755AFA"/>
<path d="M14.1 30.8L6.5 27.6C3.6 26.3 2.2 24.3 1.8 20.8C1.7 19.9 1.9 18.9 2.4 18.9C2.9 18.7 3.3 19.8 3.5 20.4C4.1 22.4 5.7 24 7.7 24.8L15.3 28L14.1 30.8Z" fill="url(#paint0_radial_102_158)"/>
<path d="M5.1 14.2C4.9 13.9 5.4 13.3 6.2 12.8L13.5 8.9C14.7 8.4 15.4 7.3 15.4 6H18.4C18.4 8.5 16.9 10.7 14.7 11.6L6.8 14.2C5.8 14.5 5.3 14.5 5.1 14.2Z" fill="url(#paint1_radial_102_158)"/>
<path d="M29 21.7C31.6 21.7 33.7 20.2 34.2 17.9H32.5C32.1 19.3 30.7 20.2 29 20.2C26.7 20.2 25.1 18.4 25.1 15.7C25.1 13 26.6 11.2 29 11.2C30.7 11.2 32 12.1 32.4 13.6H34.1C33.7 11.2 31.7 9.7 29.1 9.7C25.8 9.7 23.5 12.1 23.5 15.7C23.5 19.3 25.7 21.7 29 21.7ZM37.3 21.5V9.7H35.8V21.5H37.3ZM41.8 21.7C43.1 21.7 44.1 21.1 44.5 20.2L44.7 21.5H46V16.6C46 14.5 44.7 13.5 42.8 13.5C40.8 13.5 39.4 14.6 39.4 16.2H40.7C40.7 15.3 41.4 14.7 42.7 14.7C43.8 14.7 44.5 15.2 44.5 16.5V16.7L42 16.8C40.2 16.9 39.1 17.8 39.1 19.3C39.1 20.7 40.1 21.7 41.8 21.7ZM42.2 20.5C41.2 20.5 40.6 20.1 40.6 19.3C40.6 18.5 41.1 18 42.5 17.9L44.5 17.7V18.1C44.5 19.6 43.6 20.5 42.2 20.5ZM47.1 25C47.5 25.1 47.9 25.2 48.4 25.2C49.6 25.2 50.4 24.6 50.9 23.3L54.6 13.7H53L50.7 20L48.4 13.7H46.8L50 21.9L49.7 22.7C49.3 23.7 48.8 23.8 48 23.8H47V25H47.1ZM55.4 13.1C55.4 14.8 56.4 15.9 58.3 16.3L60.2 16.7C61.3 17 61.8 17.5 61.8 18.4C61.8 19.6 60.8 20.3 59.3 20.3C57.8 20.3 56.9 19.6 56.9 18.5H55.3C55.4 20.5 57 21.7 59.3 21.7C61.8 21.7 63.4 20.4 63.4 18.3C63.4 16.7 62.4 15.6 60.6 15.2L58.7 14.8C57.5 14.5 57 13.9 57 13C57 11.9 57.9 11.1 59.4 11.1C60.7 11.1 61.5 11.8 61.6 12.9H63.2C63.1 10.9 61.6 9.7 59.4 9.7C57 9.7 55.4 11.1 55.4 13.1ZM67.3 21.5V14.9H68.8V13.6H67.3V11.2H65.8V13.6H64.3V14.9H65.8V21.5H67.3ZM72.3 21.7C73.6 21.7 74.6 21.1 75 20.2L75.2 21.5H76.5V16.6C76.5 14.5 75.2 13.5 73.3 13.5C71.3 13.5 69.9 14.6 69.9 16.2H71.2C71.2 15.3 71.9 14.7 73.2 14.7C74.3 14.7 75 15.2 75 16.5V16.7L72.5 16.9C70.7 17 69.6 17.9 69.6 19.4C69.7 20.7 70.7 21.7 72.3 21.7ZM72.8 20.5C71.8 20.5 71.2 20.1 71.2 19.3C71.2 18.5 71.7 18 73.1 17.9L75.1 17.7V18.1C75.1 19.6 74.2 20.5 72.8 20.5ZM78.1 17.6C78.1 20.1 79.6 21.7 81.9 21.7C83.8 21.7 85.2 20.6 85.5 18.9H84C83.7 19.8 82.9 20.4 81.9 20.4C80.5 20.4 79.6 19.3 79.6 17.6C79.6 15.9 80.6 14.8 82 14.8C83 14.8 83.8 15.3 84.1 16.3H85.6C85.3 14.6 84 13.4 82 13.4C79.6 13.5 78.1 15.1 78.1 17.6ZM88.7 21.5V19.3L90 17.9L92.3 21.5H94L91 16.8L94 13.7H92.1L88.6 17.4V9.7H87.1V21.5H88.7Z" fill="#F4F4F4"/>
</g>
<defs>
<radialGradient id="paint0_radial_102_158" cx="0" cy="0" r="1" gradientUnits="userSpaceOnUse" gradientTransform="translate(1.5 18.5) rotate(43.7811) scale(16.6208)">
<stop offset="0.089768" stop-color="#34278B"/>
<stop offset="1" stop-color="#755AFA"/>
</radialGradient>
<radialGradient id="paint1_radial_102_158" cx="0" cy="0" r="1" gradientUnits="userSpaceOnUse" gradientTransform="translate(4.99999 14) rotate(-30.2564) scale(13.8924)">
<stop offset="0.0514036" stop-color="#34278B"/>
<stop offset="1" stop-color="#755AFA"/>
</radialGradient>
<clipPath id="clip0_102_158">
<rect width="94" height="31" fill="white"/>
</clipPath>
</defs>
</svg>
